<?xml version="1.0" encoding="UTF-8"?>
<svg id="Layer_2" data-name="Layer 2" xmlns="http://www.w3.org/2000/svg" xmlns:xlink="http://www.w3.org/1999/xlink" viewBox="0 0 885.11 551.83">
  <defs>
    <style>
      .cls-1 {
        fill: #bdbdbd;
      }

      .cls-2 {
        letter-spacing: -.02em;
      }

      .cls-3 {
        letter-spacing: 0em;
      }

      .cls-4 {
        letter-spacing: 0em;
      }

      .cls-5 {
        letter-spacing: -.03em;
      }

      .cls-6 {
        letter-spacing: 0em;
      }

      .cls-7 {
        font-family: Manrope-SemiBold, Manrope;
        font-size: 30.93px;
        font-weight: 600;
      }

      .cls-7, .cls-8, .cls-9 {
        fill: #193763;
      }

      .cls-10, .cls-11, .cls-12 {
        fill: #fff;
      }

      .cls-13 {
        letter-spacing: -.02em;
      }

      .cls-11 {
        font-size: 35.25px;
      }

      .cls-11, .cls-8 {
        font-family: Manrope-Medium, Manrope;
        font-weight: 500;
      }

      .cls-14, .cls-15 {
        fill: none;
      }

      .cls-16 {
        letter-spacing: -.04em;
      }

      .cls-15 {
        stroke: #193763;
        stroke-miterlimit: 10;
      }

      .cls-12 {
        font-family: Manrope-Bold, Manrope;
        font-size: 77.68px;
        font-weight: 700;
      }

      .cls-17 {
        letter-spacing: 0em;
      }

      .cls-18 {
        letter-spacing: -.02em;
      }

      .cls-8 {
        font-size: 18.88px;
      }

      .cls-19 {
        letter-spacing: -.02em;
      }

      .cls-20 {
        letter-spacing: -.08em;
      }

      .cls-21 {
        letter-spacing: 0em;
      }

      .cls-22 {
        letter-spacing: -.01em;
      }

      .cls-23 {
        clip-path: url(#clippath);
      }

      .cls-24 {
        letter-spacing: 0em;
      }
    </style>
    <clipPath id="clippath">
      <rect class="cls-14" width="885.11" height="551.83" rx="37.7" ry="37.7"/>
    </clipPath>
  </defs>
  <g id="Layer_1-2" data-name="Layer 1">
    <g class="cls-23">
      <rect class="cls-1" x="-59.49" y="-8.4" width="1006.98" height="572.94"/>
      <path class="cls-9" d="M644.01,197c-84.66,12.85-166.06,41.95-250.25,57.58C263.07,278.85,126.41,269.4,0,228.47v333.62C0,582.91,16.88,599.79,37.7,599.79h809.7c20.82,0,37.7-16.88,37.7-37.7V232.79c-70.15-43.69-159.05-48.24-241.1-35.78Z"/>
      <path class="cls-10" d="M393.76,244.93c84.19-15.63,165.59-44.73,250.25-57.58,82.05-12.46,170.95-7.91,241.1,35.78V76c0-20.82-16.88-37.7-37.7-37.7H37.7C16.88,38.3,0,55.18,0,76v142.81c126.41,40.94,263.07,50.38,393.76,26.12Z"/>
      <path class="cls-15" d="M398.05,235.28c90.59-16.82,178.17-48.12,269.26-61.95,88.28-13.4,183.93-8.51,259.41,38.5V53.52c0-22.4-18.16-40.57-40.57-40.57H14.95c-22.4,0-40.57,18.16-40.57,40.57v153.66c136.02,44.05,283.05,54.2,423.67,28.1Z"/>
      <path class="cls-15" d="M417.67,217.98c90.59-16.82,178.17-48.12,269.26-61.95,88.28-13.4,183.93-8.51,259.41,38.5V36.22c0-22.4-18.16-40.57-40.57-40.57H34.57C12.17-4.34-5.99,13.82-5.99,36.22v153.66c136.02,44.05,283.05,54.2,423.67,28.1Z"/>
      <rect class="cls-10" y="-128.36" width="946.19" height="225.92"/>
      <g>
        <path class="cls-9" d="M108.79,141.75c-2.41-.27-4.76-1.92-5.45-4.28-.24-.83-.19-2.35-.5-2.93-.19-.37-1.06-1.02-1.4-1.42-3.86-4.6-6.62-10.23-7.63-16.18-9.47-4.51-14.4-14.34-11.57-24.65,3.16-11.5,14.54-17.72,26.06-14.59,2.21-1.3,4.32-2.82,6.69-3.84,1.54-.66,3.19-1.04,4.7-1.8.58-.48.06-1.55,0-2.2-.09-1.14.22-2.75.55-3.85,3.07-10.44,18.96-11.84,23.27-1.47,5.97,14.34-13.11,24.14-21.53,12.2-.22-.31-.72-1.41-1.01-1.44-.24-.02-1.02.3-1.32.4-2.44.84-4.95,2.17-7.14,3.52-.11.08.06.18.13.24.52.47,1.51.94,2.13,1.42,6.48,4.93,9.51,12.55,8.06,20.63-2.08,11.56-13.67,19.35-25.2,16.74.8,3.69,2.49,7.37,4.68,10.44.3.42,1.61,2.2,1.94,2.35.49.23,1-.68,1.36-.97,2.28-1.84,5.83-1.54,8.02.29,4.43,3.71,2.29,10.81-3.49,11.38-.35.04-1,.04-1.35,0Z"/>
        <path class="cls-9" d="M59.78,92.32c1.16-31.78,35.13-52.77,64.44-40.68l.98.61c-6.38,3.61-11.5,9.59-14.46,16.28-.17.11-1.53-.2-1.9-.2-18.35.01-33.83,9.74-37.02,28.62-2.82,16.72,6.92,35.21,23.82,39.63,1.02.27,2.22.36,3.16.64.18.05.21-.07.18.25-.23.19-2.52-.08-2.98-.14-19.66-2.61-35.52-23.52-36.22-42.69-.03-.75-.03-1.58,0-2.32Z"/>
        <path class="cls-9" d="M200.79,125.97h-9.25c-.06,0-.9-.47-.95-.64l-12.1-19.3h-12.62v19.94h-7.96c-.03-1.57.04-3.15,0-4.72-.39-18.17-.25-36.37-.49-54.56.03-.17.11-.38.23-.5.18-.18,1.29-.28,1.66-.3,2.41-.15,4.84,0,7.23.01,12.53,0,26.59-.98,32.51,12.55,4.71,10.77-.82,21.87-11.37,26.05l13.11,21.47ZM165.88,98.19h17.34c1.01,0,2.93-.92,3.8-1.47,6.66-4.17,7.76-15.1,1.08-19.8-1.22-.86-5.58-2.96-6.96-2.96h-15.25v24.23Z"/>
        <path class="cls-9" d="M319.38,65.89v8.08h-26.83l.12,17.08c.02.11.33.79.37.79h20.28l.18.18v7.53h-20.95l.12,17.44c-.08.23.44.91.55.91h26.16v8.08h-35.04v-60.08h35.04Z"/>
        <path class="cls-9" d="M427.8,76.41l-7.27,3.91c-3.04-5.47-9.54-8.32-15.66-6.69-8.61,2.29-10.51,11.96-1.89,15.89,8.67,3.95,22.93,2.21,25.65,14.03,3.26,14.14-8.49,23.64-21.83,22.91-6.76-.37-15.33-4.25-18.5-10.52-.89-1.76-.55-1.99.96-2.84.62-.35,5.46-2.61,5.77-2.53,1.13,2.26,2.53,4.1,4.66,5.49,6.12,4,17.91,3.79,20.44-4.31,4.17-13.37-14.66-11.94-22.05-15.61-12.58-6.27-11.18-23.65,1.43-28.96,10.38-4.36,22.58-.37,28.3,9.23Z"/>
        <path class="cls-9" d="M381.25,78.98c-1.04.34-5.75,3.95-6.4,3.9-.17-.01-.38-.12-.52-.23-.56-.48-1.44-1.92-2.09-2.57-7.7-7.77-20.87-8.37-28.98-.91-14.06,12.93-6.72,38.2,13.05,39.22,7.57.39,14.65-3.58,18.14-10.27l6.78,3.92c-2.72,5.33-7.67,9.77-13.23,12.04-14.51,5.92-31.89-1.27-37.79-15.72-9.07-22.22,8.62-47.07,33.04-41.93,7.41,1.56,14.03,6.12,17.98,12.56Z"/>
        <polygon class="cls-9" points="275.03 66.5 275.03 73.96 256.78 73.96 256.78 125.97 248.57 125.97 248.57 73.96 231.05 73.96 231.05 65.89 275.03 66.5"/>
        <rect class="cls-9" x="212.31" y="65.89" width="8.21" height="60.08"/>
      </g>
      <text class="cls-8" transform="translate(73.66 174.8)"><tspan x="0" y="0">Riset dan I</tspan><tspan class="cls-24" x="91.36" y="0">n</tspan><tspan class="cls-19" x="102.68" y="0">o</tspan><tspan class="cls-5" x="113.64" y="0">v</tspan><tspan x="122.95" y="0">asi pada </tspan><tspan class="cls-20" x="199.75" y="0">T</tspan><tspan x="209.57" y="0">ek</tspan><tspan class="cls-3" x="230.35" y="0">n</tspan><tspan class="cls-21" x="241.67" y="0">ologi Compu</tspan><tspan class="cls-13" x="352.92" y="0">t</tspan><tspan x="360.26" y="0">er S</tspan><tspan class="cls-2" x="394.14" y="0">c</tspan><tspan class="cls-17" x="404.45" y="0">i</tspan><tspan class="cls-22" x="409.15" y="0">e</tspan><tspan class="cls-3" x="420.02" y="0">n</tspan><tspan class="cls-2" x="431.34" y="0">c</tspan><tspan class="cls-17" x="441.64" y="0">e</tspan></text>
      <g>
        <path class="cls-9" d="M876.97,435.49c-13.27-1.48-26.25-10.62-30.08-23.63-1.34-4.55-1.07-12.95-2.75-16.15-1.06-2.02-5.86-5.63-7.7-7.83-21.28-25.37-36.55-56.47-42.1-89.27-52.25-24.88-79.46-79.12-63.85-136.03,17.41-63.48,80.25-97.8,143.81-80.5,12.19-7.17,23.86-15.57,36.92-21.21,8.48-3.66,17.63-5.72,25.91-9.91,3.21-2.67.32-8.56.03-12.14-.49-6.28,1.24-15.16,3.03-21.26,16.96-57.61,104.61-65.31,128.42-8.09,32.93,79.1-72.33,133.22-118.78,67.32-1.21-1.72-3.97-7.8-5.59-7.95-1.34-.12-5.63,1.66-7.26,2.22-13.46,4.62-27.34,11.95-39.39,19.4-.62.47.32,1.01.7,1.35,2.89,2.59,8.31,5.21,11.76,7.83,35.75,27.19,52.49,69.23,44.46,113.83-11.47,63.76-75.41,106.78-139.04,92.38,4.4,20.37,13.72,40.65,25.81,57.6,1.64,2.3,8.88,12.14,10.71,12.98,2.72,1.25,5.51-3.78,7.48-5.37,12.57-10.17,32.15-8.51,44.23,1.61,24.46,20.5,12.63,59.63-19.28,62.81-1.95.19-5.51.22-7.44,0Z"/>
        <path class="cls-9" d="M606.57,162.72c6.39-175.34,193.85-291.2,355.56-224.49l5.42,3.36c-35.2,19.94-63.48,52.93-79.77,89.85-.96.61-8.42-1.13-10.48-1.12-101.23.08-186.69,53.76-204.28,157.93-15.57,92.26,38.16,194.3,131.46,218.69,5.61,1.47,12.23,1.99,17.41,3.55.98.29,1.18-.38.99,1.37-1.27,1.02-13.91-.43-16.47-.77-108.48-14.38-196-129.77-199.85-235.54-.15-4.12-.15-8.71,0-12.83Z"/>
      </g>
      <g>
        <path class="cls-10" d="M44.44,712.8c-7.05-.79-13.94-5.64-15.97-12.55-.71-2.42-.57-6.87-1.46-8.58-.56-1.07-3.11-2.99-4.09-4.16-11.3-13.47-19.4-29.98-22.36-47.4-27.74-13.21-42.19-42.01-33.9-72.23,9.24-33.71,42.61-51.93,76.36-42.74,6.47-3.81,12.67-8.27,19.6-11.26,4.51-1.95,9.36-3.04,13.76-5.26,1.7-1.42.17-4.54.02-6.45-.26-3.33.66-8.05,1.61-11.29,9.01-30.59,55.54-34.68,68.19-4.3,17.48,42-38.4,70.74-63.07,35.75-.64-.91-2.11-4.14-2.97-4.22-.71-.06-2.99.88-3.86,1.18-7.15,2.45-14.51,6.35-20.92,10.3-.33.25.17.53.37.71,1.54,1.38,4.41,2.77,6.24,4.16,18.98,14.44,27.87,36.76,23.61,60.44-6.09,33.86-40.04,56.7-73.82,49.05,2.33,10.81,7.28,21.58,13.7,30.58.87,1.22,4.71,6.45,5.69,6.89,1.45.66,2.93-2,3.97-2.85,6.67-5.4,17.07-4.52,23.49.86,12.99,10.88,6.71,31.66-10.24,33.35-1.03.1-2.92.11-3.95,0Z"/>
        <path class="cls-10" d="M-99.13,567.97c3.39-93.1,102.93-154.62,188.79-119.19l2.88,1.78c-18.69,10.58-33.7,28.1-42.35,47.71-.51.32-4.47-.6-5.57-.6-53.75.04-99.13,28.54-108.46,83.85-8.27,48.99,20.26,103.16,69.8,116.11,2.98.78,6.49,1.06,9.24,1.88.52.16.63-.2.53.73-.67.54-7.38-.23-8.74-.41-57.6-7.64-104.07-68.9-106.11-125.06-.08-2.19-.08-4.62,0-6.81Z"/>
      </g>
      <path class="cls-10" d="M843.74,536.7c3.39-93.1,102.93-154.62,188.79-119.19l2.88,1.78c-18.69,10.58-33.7,28.1-42.35,47.71-.51.32-4.47-.6-5.57-.6-53.75.04-99.13,28.54-108.46,83.85-8.27,48.99,20.26,103.16,69.8,116.11,2.98.78,6.49,1.06,9.24,1.88.52.16.63-.2.53.73-.67.54-7.38-.23-8.74-.41-57.6-7.64-104.07-68.9-106.11-125.06-.08-2.19-.08-4.62,0-6.81Z"/>
      <text class="cls-11" transform="translate(72.76 329.92)"><tspan x="0" y="0">MEMBERSHIP </tspan><tspan class="cls-18" x="228.83" y="0">C</tspan><tspan class="cls-6" x="253.61" y="0">ARD</tspan></text>
      <text class="cls-12" transform="translate(64.18 407.36)"><tspan x="0" y="0">__NAME__</tspan></text>
      <path class="cls-10" d="M639.22,492.02h329.48c23.78,0,43.09,19.31,43.09,43.09h0c0,23.78-19.31,43.09-43.09,43.09h-372.57v-43.09c0-23.78,19.31-43.09,43.09-43.09Z"/>
      <text class="cls-7" transform="translate(631.69 535.25)"><tspan x="0" y="0">__MEMBER_NUMBER__</tspan></text>
    </g>
  </g>
</svg>